<mxfile host="app.diagrams.net" agent="Mozilla/5.0 (Windows NT 10.0; Win64; x64) AppleWebKit/537.36 (KHTML, like Gecko) Chrome/127.0.0.0 Safari/537.36" version="24.7.7">
  <diagram name="Page-1" id="Y1L3PAzGPPIWjKQPWywd">
    <mxGraphModel dx="1900" dy="583" grid="1" gridSize="10" guides="1" tooltips="1" connect="1" arrows="1" fold="1" page="1" pageScale="1" pageWidth="850" pageHeight="1100" math="0" shadow="0">
      <root>
        <mxCell id="0" />
        <mxCell id="1" parent="0" />
        <mxCell id="dKoN5ri2xgYqgTkK_d7u-1" value="&lt;b&gt;DB Server&lt;/b&gt;" style="shape=cylinder3;whiteSpace=wrap;html=1;boundedLbl=1;backgroundOutline=1;size=15;fillColor=#dae8fc;gradientColor=#7ea6e0;strokeColor=#6c8ebf;" parent="1" vertex="1">
          <mxGeometry x="570" y="120" width="160" height="110" as="geometry" />
        </mxCell>
        <mxCell id="dKoN5ri2xgYqgTkK_d7u-2" value="&lt;b&gt;App Server&lt;/b&gt;" style="rounded=0;whiteSpace=wrap;html=1;fillColor=#d5e8d4;gradientColor=#97d077;strokeColor=#82b366;" parent="1" vertex="1">
          <mxGeometry x="370" y="120" width="140" height="110" as="geometry" />
        </mxCell>
        <mxCell id="dKoN5ri2xgYqgTkK_d7u-3" style="edgeStyle=orthogonalEdgeStyle;rounded=0;orthogonalLoop=1;jettySize=auto;html=1;entryX=0;entryY=0.5;entryDx=0;entryDy=0;entryPerimeter=0;flowAnimation=1;" parent="1" source="dKoN5ri2xgYqgTkK_d7u-2" target="dKoN5ri2xgYqgTkK_d7u-1" edge="1">
          <mxGeometry relative="1" as="geometry" />
        </mxCell>
        <mxCell id="dKoN5ri2xgYqgTkK_d7u-5" style="edgeStyle=orthogonalEdgeStyle;rounded=0;orthogonalLoop=1;jettySize=auto;html=1;entryX=0;entryY=0.5;entryDx=0;entryDy=0;flowAnimation=1;" parent="1" source="dKoN5ri2xgYqgTkK_d7u-4" target="dKoN5ri2xgYqgTkK_d7u-2" edge="1">
          <mxGeometry relative="1" as="geometry" />
        </mxCell>
        <mxCell id="dKoN5ri2xgYqgTkK_d7u-4" value="&lt;b&gt;Web Server&lt;/b&gt;" style="rounded=1;whiteSpace=wrap;html=1;fillColor=#e6d0de;gradientColor=#d5739d;strokeColor=#996185;" parent="1" vertex="1">
          <mxGeometry x="160" width="140" height="110" as="geometry" />
        </mxCell>
        <mxCell id="dKoN5ri2xgYqgTkK_d7u-7" style="edgeStyle=orthogonalEdgeStyle;rounded=0;orthogonalLoop=1;jettySize=auto;html=1;entryX=0;entryY=0.5;entryDx=0;entryDy=0;flowAnimation=1;" parent="1" source="dKoN5ri2xgYqgTkK_d7u-6" target="dKoN5ri2xgYqgTkK_d7u-4" edge="1">
          <mxGeometry relative="1" as="geometry" />
        </mxCell>
        <mxCell id="dKoN5ri2xgYqgTkK_d7u-6" value="&lt;b&gt;Load Balancer&lt;/b&gt;" style="ellipse;whiteSpace=wrap;html=1;aspect=fixed;fillColor=#fff2cc;gradientColor=#ffd966;strokeColor=#d6b656;" parent="1" vertex="1">
          <mxGeometry x="-20" y="120" width="110" height="110" as="geometry" />
        </mxCell>
        <mxCell id="dKoN5ri2xgYqgTkK_d7u-9" style="edgeStyle=orthogonalEdgeStyle;rounded=0;orthogonalLoop=1;jettySize=auto;html=1;entryX=0;entryY=0.5;entryDx=0;entryDy=0;flowAnimation=1;" parent="1" source="dKoN5ri2xgYqgTkK_d7u-8" target="dKoN5ri2xgYqgTkK_d7u-6" edge="1">
          <mxGeometry relative="1" as="geometry" />
        </mxCell>
        <mxCell id="dKoN5ri2xgYqgTkK_d7u-8" value="" style="html=1;verticalLabelPosition=bottom;align=center;labelBackgroundColor=#ffffff;verticalAlign=top;strokeWidth=2;strokeColor=#0080F0;shadow=0;dashed=0;shape=mxgraph.ios7.icons.user;" parent="1" vertex="1">
          <mxGeometry x="-200" y="125" width="120" height="100" as="geometry" />
        </mxCell>
        <mxCell id="dKoN5ri2xgYqgTkK_d7u-10" value="" style="whiteSpace=wrap;html=1;aspect=fixed;fillColor=#d5e8d4;gradientColor=#97d077;strokeColor=#82b366;" parent="1" vertex="1">
          <mxGeometry x="340" y="370" width="340" height="340" as="geometry" />
        </mxCell>
        <mxCell id="dKoN5ri2xgYqgTkK_d7u-11" value="&lt;b&gt;MySQL Server&lt;/b&gt;" style="ellipse;whiteSpace=wrap;html=1;fillColor=#f8cecc;gradientColor=#ea6b66;strokeColor=#b85450;" parent="1" vertex="1">
          <mxGeometry x="540" y="480" width="120" height="80" as="geometry" />
        </mxCell>
        <mxCell id="dKoN5ri2xgYqgTkK_d7u-13" style="edgeStyle=orthogonalEdgeStyle;rounded=0;orthogonalLoop=1;jettySize=auto;html=1;" parent="1" source="dKoN5ri2xgYqgTkK_d7u-12" target="dKoN5ri2xgYqgTkK_d7u-11" edge="1">
          <mxGeometry relative="1" as="geometry" />
        </mxCell>
        <mxCell id="dKoN5ri2xgYqgTkK_d7u-12" value="&lt;b&gt;Client&lt;/b&gt;" style="rounded=0;whiteSpace=wrap;html=1;" parent="1" vertex="1">
          <mxGeometry x="360" y="490" width="120" height="60" as="geometry" />
        </mxCell>
        <mxCell id="dKoN5ri2xgYqgTkK_d7u-14" value="" style="whiteSpace=wrap;html=1;aspect=fixed;fillColor=#d5e8d4;gradientColor=#97d077;strokeColor=#82b366;" parent="1" vertex="1">
          <mxGeometry x="-100" y="370" width="340" height="340" as="geometry" />
        </mxCell>
        <mxCell id="dKoN5ri2xgYqgTkK_d7u-15" value="" style="rounded=0;whiteSpace=wrap;html=1;fillColor=#dae8fc;gradientColor=#7ea6e0;strokeColor=#6c8ebf;" parent="1" vertex="1">
          <mxGeometry x="10" y="410" width="180" height="160" as="geometry" />
        </mxCell>
        <mxCell id="dKoN5ri2xgYqgTkK_d7u-16" value="" style="shape=table;startSize=0;container=1;collapsible=0;childLayout=tableLayout;fontSize=16;fillColor=#f8cecc;gradientColor=#ea6b66;strokeColor=#b85450;" parent="1" vertex="1">
          <mxGeometry x="30" y="430" width="80" height="50" as="geometry" />
        </mxCell>
        <mxCell id="dKoN5ri2xgYqgTkK_d7u-17" value="" style="shape=tableRow;horizontal=0;startSize=0;swimlaneHead=0;swimlaneBody=0;strokeColor=inherit;top=0;left=0;bottom=0;right=0;collapsible=0;dropTarget=0;fillColor=none;points=[[0,0.5],[1,0.5]];portConstraint=eastwest;fontSize=16;" parent="dKoN5ri2xgYqgTkK_d7u-16" vertex="1">
          <mxGeometry width="80" height="17" as="geometry" />
        </mxCell>
        <mxCell id="dKoN5ri2xgYqgTkK_d7u-18" value="" style="shape=partialRectangle;html=1;whiteSpace=wrap;connectable=0;strokeColor=inherit;overflow=hidden;fillColor=none;top=0;left=0;bottom=0;right=0;pointerEvents=1;fontSize=16;" parent="dKoN5ri2xgYqgTkK_d7u-17" vertex="1">
          <mxGeometry width="13" height="17" as="geometry">
            <mxRectangle width="13" height="17" as="alternateBounds" />
          </mxGeometry>
        </mxCell>
        <mxCell id="dKoN5ri2xgYqgTkK_d7u-19" value="" style="shape=partialRectangle;html=1;whiteSpace=wrap;connectable=0;strokeColor=inherit;overflow=hidden;fillColor=none;top=0;left=0;bottom=0;right=0;pointerEvents=1;fontSize=16;" parent="dKoN5ri2xgYqgTkK_d7u-17" vertex="1">
          <mxGeometry x="13" width="40" height="17" as="geometry">
            <mxRectangle width="40" height="17" as="alternateBounds" />
          </mxGeometry>
        </mxCell>
        <mxCell id="dKoN5ri2xgYqgTkK_d7u-20" value="" style="shape=partialRectangle;html=1;whiteSpace=wrap;connectable=0;strokeColor=inherit;overflow=hidden;fillColor=none;top=0;left=0;bottom=0;right=0;pointerEvents=1;fontSize=16;" parent="dKoN5ri2xgYqgTkK_d7u-17" vertex="1">
          <mxGeometry x="53" width="27" height="17" as="geometry">
            <mxRectangle width="27" height="17" as="alternateBounds" />
          </mxGeometry>
        </mxCell>
        <mxCell id="dKoN5ri2xgYqgTkK_d7u-21" value="" style="shape=tableRow;horizontal=0;startSize=0;swimlaneHead=0;swimlaneBody=0;strokeColor=inherit;top=0;left=0;bottom=0;right=0;collapsible=0;dropTarget=0;fillColor=none;points=[[0,0.5],[1,0.5]];portConstraint=eastwest;fontSize=16;" parent="dKoN5ri2xgYqgTkK_d7u-16" vertex="1">
          <mxGeometry y="17" width="80" height="16" as="geometry" />
        </mxCell>
        <mxCell id="dKoN5ri2xgYqgTkK_d7u-22" value="" style="shape=partialRectangle;html=1;whiteSpace=wrap;connectable=0;strokeColor=inherit;overflow=hidden;fillColor=none;top=0;left=0;bottom=0;right=0;pointerEvents=1;fontSize=16;" parent="dKoN5ri2xgYqgTkK_d7u-21" vertex="1">
          <mxGeometry width="13" height="16" as="geometry">
            <mxRectangle width="13" height="16" as="alternateBounds" />
          </mxGeometry>
        </mxCell>
        <mxCell id="dKoN5ri2xgYqgTkK_d7u-23" value="" style="shape=partialRectangle;html=1;whiteSpace=wrap;connectable=0;strokeColor=inherit;overflow=hidden;fillColor=none;top=0;left=0;bottom=0;right=0;pointerEvents=1;fontSize=16;" parent="dKoN5ri2xgYqgTkK_d7u-21" vertex="1">
          <mxGeometry x="13" width="40" height="16" as="geometry">
            <mxRectangle width="40" height="16" as="alternateBounds" />
          </mxGeometry>
        </mxCell>
        <mxCell id="dKoN5ri2xgYqgTkK_d7u-24" value="" style="shape=partialRectangle;html=1;whiteSpace=wrap;connectable=0;strokeColor=inherit;overflow=hidden;fillColor=none;top=0;left=0;bottom=0;right=0;pointerEvents=1;fontSize=16;" parent="dKoN5ri2xgYqgTkK_d7u-21" vertex="1">
          <mxGeometry x="53" width="27" height="16" as="geometry">
            <mxRectangle width="27" height="16" as="alternateBounds" />
          </mxGeometry>
        </mxCell>
        <mxCell id="dKoN5ri2xgYqgTkK_d7u-25" value="" style="shape=tableRow;horizontal=0;startSize=0;swimlaneHead=0;swimlaneBody=0;strokeColor=inherit;top=0;left=0;bottom=0;right=0;collapsible=0;dropTarget=0;fillColor=none;points=[[0,0.5],[1,0.5]];portConstraint=eastwest;fontSize=16;" parent="dKoN5ri2xgYqgTkK_d7u-16" vertex="1">
          <mxGeometry y="33" width="80" height="17" as="geometry" />
        </mxCell>
        <mxCell id="dKoN5ri2xgYqgTkK_d7u-26" value="" style="shape=partialRectangle;html=1;whiteSpace=wrap;connectable=0;strokeColor=inherit;overflow=hidden;fillColor=none;top=0;left=0;bottom=0;right=0;pointerEvents=1;fontSize=16;" parent="dKoN5ri2xgYqgTkK_d7u-25" vertex="1">
          <mxGeometry width="13" height="17" as="geometry">
            <mxRectangle width="13" height="17" as="alternateBounds" />
          </mxGeometry>
        </mxCell>
        <mxCell id="dKoN5ri2xgYqgTkK_d7u-27" value="" style="shape=partialRectangle;html=1;whiteSpace=wrap;connectable=0;strokeColor=inherit;overflow=hidden;fillColor=none;top=0;left=0;bottom=0;right=0;pointerEvents=1;fontSize=16;" parent="dKoN5ri2xgYqgTkK_d7u-25" vertex="1">
          <mxGeometry x="13" width="40" height="17" as="geometry">
            <mxRectangle width="40" height="17" as="alternateBounds" />
          </mxGeometry>
        </mxCell>
        <mxCell id="dKoN5ri2xgYqgTkK_d7u-28" value="" style="shape=partialRectangle;html=1;whiteSpace=wrap;connectable=0;strokeColor=inherit;overflow=hidden;fillColor=none;top=0;left=0;bottom=0;right=0;pointerEvents=1;fontSize=16;" parent="dKoN5ri2xgYqgTkK_d7u-25" vertex="1">
          <mxGeometry x="53" width="27" height="17" as="geometry">
            <mxRectangle width="27" height="17" as="alternateBounds" />
          </mxGeometry>
        </mxCell>
        <mxCell id="dKoN5ri2xgYqgTkK_d7u-29" value="" style="shape=table;startSize=0;container=1;collapsible=0;childLayout=tableLayout;fontSize=16;fillColor=#e6d0de;gradientColor=#d5739d;strokeColor=#996185;" parent="1" vertex="1">
          <mxGeometry x="30" y="500" width="80" height="50" as="geometry" />
        </mxCell>
        <mxCell id="dKoN5ri2xgYqgTkK_d7u-30" value="" style="shape=tableRow;horizontal=0;startSize=0;swimlaneHead=0;swimlaneBody=0;strokeColor=inherit;top=0;left=0;bottom=0;right=0;collapsible=0;dropTarget=0;fillColor=none;points=[[0,0.5],[1,0.5]];portConstraint=eastwest;fontSize=16;" parent="dKoN5ri2xgYqgTkK_d7u-29" vertex="1">
          <mxGeometry width="80" height="17" as="geometry" />
        </mxCell>
        <mxCell id="dKoN5ri2xgYqgTkK_d7u-31" value="" style="shape=partialRectangle;html=1;whiteSpace=wrap;connectable=0;strokeColor=inherit;overflow=hidden;fillColor=none;top=0;left=0;bottom=0;right=0;pointerEvents=1;fontSize=16;" parent="dKoN5ri2xgYqgTkK_d7u-30" vertex="1">
          <mxGeometry width="13" height="17" as="geometry">
            <mxRectangle width="13" height="17" as="alternateBounds" />
          </mxGeometry>
        </mxCell>
        <mxCell id="dKoN5ri2xgYqgTkK_d7u-32" value="" style="shape=partialRectangle;html=1;whiteSpace=wrap;connectable=0;strokeColor=inherit;overflow=hidden;fillColor=none;top=0;left=0;bottom=0;right=0;pointerEvents=1;fontSize=16;" parent="dKoN5ri2xgYqgTkK_d7u-30" vertex="1">
          <mxGeometry x="13" width="37" height="17" as="geometry">
            <mxRectangle width="37" height="17" as="alternateBounds" />
          </mxGeometry>
        </mxCell>
        <mxCell id="dKoN5ri2xgYqgTkK_d7u-33" value="" style="shape=partialRectangle;html=1;whiteSpace=wrap;connectable=0;strokeColor=inherit;overflow=hidden;fillColor=none;top=0;left=0;bottom=0;right=0;pointerEvents=1;fontSize=16;" parent="dKoN5ri2xgYqgTkK_d7u-30" vertex="1">
          <mxGeometry x="50" width="30" height="17" as="geometry">
            <mxRectangle width="30" height="17" as="alternateBounds" />
          </mxGeometry>
        </mxCell>
        <mxCell id="dKoN5ri2xgYqgTkK_d7u-34" value="" style="shape=tableRow;horizontal=0;startSize=0;swimlaneHead=0;swimlaneBody=0;strokeColor=inherit;top=0;left=0;bottom=0;right=0;collapsible=0;dropTarget=0;fillColor=none;points=[[0,0.5],[1,0.5]];portConstraint=eastwest;fontSize=16;" parent="dKoN5ri2xgYqgTkK_d7u-29" vertex="1">
          <mxGeometry y="17" width="80" height="16" as="geometry" />
        </mxCell>
        <mxCell id="dKoN5ri2xgYqgTkK_d7u-35" value="" style="shape=partialRectangle;html=1;whiteSpace=wrap;connectable=0;strokeColor=inherit;overflow=hidden;fillColor=none;top=0;left=0;bottom=0;right=0;pointerEvents=1;fontSize=16;" parent="dKoN5ri2xgYqgTkK_d7u-34" vertex="1">
          <mxGeometry width="13" height="16" as="geometry">
            <mxRectangle width="13" height="16" as="alternateBounds" />
          </mxGeometry>
        </mxCell>
        <mxCell id="dKoN5ri2xgYqgTkK_d7u-36" value="" style="shape=partialRectangle;html=1;whiteSpace=wrap;connectable=0;strokeColor=inherit;overflow=hidden;fillColor=none;top=0;left=0;bottom=0;right=0;pointerEvents=1;fontSize=16;" parent="dKoN5ri2xgYqgTkK_d7u-34" vertex="1">
          <mxGeometry x="13" width="37" height="16" as="geometry">
            <mxRectangle width="37" height="16" as="alternateBounds" />
          </mxGeometry>
        </mxCell>
        <mxCell id="dKoN5ri2xgYqgTkK_d7u-37" value="" style="shape=partialRectangle;html=1;whiteSpace=wrap;connectable=0;strokeColor=inherit;overflow=hidden;fillColor=none;top=0;left=0;bottom=0;right=0;pointerEvents=1;fontSize=16;" parent="dKoN5ri2xgYqgTkK_d7u-34" vertex="1">
          <mxGeometry x="50" width="30" height="16" as="geometry">
            <mxRectangle width="30" height="16" as="alternateBounds" />
          </mxGeometry>
        </mxCell>
        <mxCell id="dKoN5ri2xgYqgTkK_d7u-38" value="" style="shape=tableRow;horizontal=0;startSize=0;swimlaneHead=0;swimlaneBody=0;strokeColor=inherit;top=0;left=0;bottom=0;right=0;collapsible=0;dropTarget=0;fillColor=none;points=[[0,0.5],[1,0.5]];portConstraint=eastwest;fontSize=16;" parent="dKoN5ri2xgYqgTkK_d7u-29" vertex="1">
          <mxGeometry y="33" width="80" height="17" as="geometry" />
        </mxCell>
        <mxCell id="dKoN5ri2xgYqgTkK_d7u-39" value="" style="shape=partialRectangle;html=1;whiteSpace=wrap;connectable=0;strokeColor=inherit;overflow=hidden;fillColor=none;top=0;left=0;bottom=0;right=0;pointerEvents=1;fontSize=16;" parent="dKoN5ri2xgYqgTkK_d7u-38" vertex="1">
          <mxGeometry width="13" height="17" as="geometry">
            <mxRectangle width="13" height="17" as="alternateBounds" />
          </mxGeometry>
        </mxCell>
        <mxCell id="dKoN5ri2xgYqgTkK_d7u-40" value="" style="shape=partialRectangle;html=1;whiteSpace=wrap;connectable=0;strokeColor=inherit;overflow=hidden;fillColor=none;top=0;left=0;bottom=0;right=0;pointerEvents=1;fontSize=16;" parent="dKoN5ri2xgYqgTkK_d7u-38" vertex="1">
          <mxGeometry x="13" width="37" height="17" as="geometry">
            <mxRectangle width="37" height="17" as="alternateBounds" />
          </mxGeometry>
        </mxCell>
        <mxCell id="dKoN5ri2xgYqgTkK_d7u-41" value="" style="shape=partialRectangle;html=1;whiteSpace=wrap;connectable=0;strokeColor=inherit;overflow=hidden;fillColor=none;top=0;left=0;bottom=0;right=0;pointerEvents=1;fontSize=16;" parent="dKoN5ri2xgYqgTkK_d7u-38" vertex="1">
          <mxGeometry x="50" width="30" height="17" as="geometry">
            <mxRectangle width="30" height="17" as="alternateBounds" />
          </mxGeometry>
        </mxCell>
        <mxCell id="dKoN5ri2xgYqgTkK_d7u-42" value="&lt;b&gt;Database Server&lt;/b&gt;" style="text;html=1;align=center;verticalAlign=middle;resizable=0;points=[];autosize=1;strokeColor=none;fillColor=none;" parent="1" vertex="1">
          <mxGeometry x="20" y="340" width="120" height="30" as="geometry" />
        </mxCell>
        <mxCell id="dKoN5ri2xgYqgTkK_d7u-43" value="&lt;b&gt;Schema/Database&lt;/b&gt;" style="text;html=1;align=center;verticalAlign=middle;resizable=0;points=[];autosize=1;strokeColor=none;fillColor=none;" parent="1" vertex="1">
          <mxGeometry x="20" y="380" width="130" height="30" as="geometry" />
        </mxCell>
        <mxCell id="dKoN5ri2xgYqgTkK_d7u-44" value="&lt;b&gt;Tables&lt;/b&gt;" style="text;html=1;align=center;verticalAlign=middle;resizable=0;points=[];autosize=1;strokeColor=none;fillColor=none;" parent="1" vertex="1">
          <mxGeometry x="110" y="430" width="60" height="30" as="geometry" />
        </mxCell>
        <mxCell id="dKoN5ri2xgYqgTkK_d7u-47" style="edgeStyle=orthogonalEdgeStyle;rounded=0;orthogonalLoop=1;jettySize=auto;html=1;entryX=0;entryY=0.5;entryDx=0;entryDy=0;flowAnimation=1;" parent="1" source="dKoN5ri2xgYqgTkK_d7u-45" target="dKoN5ri2xgYqgTkK_d7u-2" edge="1">
          <mxGeometry relative="1" as="geometry">
            <Array as="points">
              <mxPoint x="330" y="250" />
              <mxPoint x="330" y="175" />
            </Array>
          </mxGeometry>
        </mxCell>
        <mxCell id="dKoN5ri2xgYqgTkK_d7u-45" value="" style="html=1;verticalLabelPosition=bottom;align=center;labelBackgroundColor=#ffffff;verticalAlign=top;strokeWidth=2;strokeColor=#0080F0;shadow=0;dashed=0;shape=mxgraph.ios7.icons.smartphone;" parent="1" vertex="1">
          <mxGeometry x="195" y="200" width="70" height="100" as="geometry" />
        </mxCell>
        <mxCell id="dKoN5ri2xgYqgTkK_d7u-46" style="edgeStyle=orthogonalEdgeStyle;rounded=0;orthogonalLoop=1;jettySize=auto;html=1;entryX=-0.02;entryY=0.625;entryDx=0;entryDy=0;entryPerimeter=0;flowAnimation=1;" parent="1" source="dKoN5ri2xgYqgTkK_d7u-6" target="dKoN5ri2xgYqgTkK_d7u-45" edge="1">
          <mxGeometry relative="1" as="geometry">
            <Array as="points">
              <mxPoint x="130" y="175" />
              <mxPoint x="130" y="250" />
              <mxPoint x="194" y="250" />
            </Array>
          </mxGeometry>
        </mxCell>
        <mxCell id="dKoN5ri2xgYqgTkK_d7u-48" value="&lt;b&gt;Mobile&lt;/b&gt;" style="text;html=1;align=center;verticalAlign=middle;resizable=0;points=[];autosize=1;strokeColor=none;fillColor=none;" parent="1" vertex="1">
          <mxGeometry x="195" y="230" width="60" height="30" as="geometry" />
        </mxCell>
      </root>
    </mxGraphModel>
  </diagram>
</mxfile>
